<svg width="680" height="460" viewBox="0 0 680 460" fill="none" xmlns="http://www.w3.org/2000/svg">
<path d="M167.552 119.2C178.931 113.966 186.051 104.747 184.388 89.3903C182.148 68.4033 162.078 61.3659 136.743 59.3617L136.738 30.251H117.109L117.103 58.5962C111.938 58.5962 106.673 58.6878 101.432 58.7827L101.428 30.2549L81.8161 30.2532L81.8124 59.3568C77.562 59.4351 73.3879 59.5097 69.3122 59.5097V59.4236L42.2365 59.4136L42.2401 78.3358C42.2401 78.3358 56.7363 78.0896 56.4975 78.3286C64.4455 78.3336 67.0407 82.5008 67.7871 86.0979L67.7932 119.261V165.844C67.4432 168.102 65.9707 171.709 60.4132 171.716C60.6661 171.917 46.1338 171.713 46.1338 171.713L42.2401 192.873H67.781C72.5402 192.878 77.2163 192.944 81.8038 192.978L81.8209 222.418L101.428 222.423L101.423 193.291C106.817 193.39 112.024 193.433 117.11 193.427L117.104 222.423H136.734L136.745 193.032C169.74 191.321 192.84 183.816 195.711 155.838C198.026 133.313 186.285 123.259 167.552 119.2ZM101.901 79.613C112.972 79.613 147.79 76.4299 147.795 97.3109C147.79 117.33 112.983 114.991 101.901 114.991V79.613V79.613ZM101.893 171.859L101.901 132.851C115.203 132.848 156.923 129.396 156.929 152.346C156.934 174.356 115.203 171.85 101.893 171.859Z" fill="url(#paint0_linear_2_6)"/>
<path d="M175.443 120.496C186.822 115.262 193.942 106.043 192.279 90.6862C190.039 69.6992 169.97 62.6618 144.635 60.6576L144.63 31.5469H125L124.994 59.8921C119.83 59.8921 114.565 59.9837 109.324 60.0786L109.319 31.5508L89.7073 31.5491L89.7036 60.6527C85.4532 60.731 81.2792 60.8056 77.2035 60.8056V60.7195L50.1277 60.7095L50.1314 79.6317C50.1314 79.6317 64.6275 79.3855 64.3887 79.6245C72.3368 79.6295 74.932 83.7967 75.6783 87.3938L75.6845 120.557V167.14C75.3345 169.398 73.8619 173.005 68.3044 173.012C68.5573 173.212 54.0251 173.009 54.0251 173.009L50.1314 194.169H75.6722C80.4314 194.174 85.1075 194.24 89.6951 194.273L89.7122 223.714L109.319 223.719L109.314 194.587C114.708 194.686 119.915 194.729 125.001 194.723L124.996 223.719H144.625L144.636 194.328C177.631 192.616 200.731 185.112 203.603 157.134C205.917 134.609 194.176 124.555 175.443 120.496ZM109.793 80.9089C120.864 80.9089 155.682 77.7258 155.687 98.6068C155.682 118.626 120.875 116.287 109.793 116.287V80.9089V80.9089ZM109.784 173.155L109.793 134.147C123.094 134.144 164.815 130.691 164.82 153.642C164.826 175.652 123.094 173.146 109.784 173.155Z" fill="url(#paint1_linear_2_6)"/>
<path d="M589.293 173.282L590.483 174.419L644.967 143.577L590.483 57L589.293 60.8738V173.282Z" fill="#222C56"/>
<path d="M590.484 174.42V57L536 143.577L590.484 174.42Z" fill="#545B79"/>
<path d="M589.813 225.124L590.483 227L645 153.472L590.484 184.299L589.813 185.082L589.813 225.124Z" fill="#222C56"/>
<path d="M536 153.471L590.484 227V184.298L536 153.471Z" fill="#545B79"/>
<path d="M590.483 119.861V174.419L644.966 143.577L590.483 119.861Z" fill="#10193A"/>
<path d="M590.483 119.861L536 143.577L590.483 174.419V119.861Z" fill="#293150"/>
<path d="M285.306 413C315.298 413 339.611 387.256 339.611 355.5C339.611 323.744 315.298 298 285.306 298C255.313 298 231 323.744 231 355.5C231 387.256 255.313 413 285.306 413Z" fill="url(#paint2_linear_2_6)"/>
<path d="M291.094 360.806V360.797C290.718 360.825 288.78 360.945 284.467 360.945C281.019 360.945 278.6 360.843 277.745 360.797V360.806C264.482 360.187 254.59 357.746 254.59 354.816C254.59 351.895 264.491 349.445 277.745 348.826V358.375C278.609 358.44 281.097 358.597 284.528 358.597C288.649 358.597 290.71 358.412 291.094 358.375V348.835C304.33 349.463 314.196 351.904 314.196 354.825C314.196 357.746 304.321 360.187 291.094 360.816V360.806ZM291.094 347.846V339.304H309.56V326.279H259.288V339.304H277.753V347.846C262.745 348.576 251.465 351.719 251.465 355.491C251.465 359.262 262.754 362.406 277.753 363.145V390.527H291.103V363.145C306.085 362.415 317.347 359.272 317.347 355.5C317.347 351.738 306.085 348.585 291.103 347.855" fill="#121224"/>
<defs>
<linearGradient id="paint0_linear_2_6" x1="109.924" y1="177.815" x2="180.817" y2="275.954" gradientUnits="userSpaceOnUse">
<stop stop-color="#222C56"/>
<stop offset="1" stop-color="#545B79"/>
</linearGradient>
<linearGradient id="paint1_linear_2_6" x1="71.5977" y1="66.3809" x2="151.733" y2="230.488" gradientUnits="userSpaceOnUse">
<stop stop-color="#545B79"/>
<stop offset="1" stop-color="#222C56"/>
</linearGradient>
<linearGradient id="paint2_linear_2_6" x1="251.34" y1="306.05" x2="331.974" y2="394.107" gradientUnits="userSpaceOnUse">
<stop stop-color="#545B79"/>
<stop offset="1" stop-color="#222C56"/>
</linearGradient>
</defs>
</svg>
